<?xml version="1.0" encoding="UTF-8"?>
<svg id="Layer_1" data-name="Layer 1" xmlns="http://www.w3.org/2000/svg" viewBox="0 0 1080 397.61">
  <defs>
    <style>
      .cls-1 {
        fill: #000;
      }

      .cls-1, .cls-2 {
        stroke-width: 0px;
      }

      .cls-2, .cls-3 {
        fill: #fff;
      }

      .cls-3 {
        font-family: MicrosoftYaHeiUI, 'Microsoft YaHei UI';
        font-size: 167.02px;
        letter-spacing: -.06em;
      }
    </style>
  </defs>
  <rect class="cls-1" x="1.18" y="-343.69" width="1081.38" height="1084.13"/>
  <g>
    <rect class="cls-2" x="115.96" y="37.25" width="57.84" height="153.71"/>
    <polygon class="cls-2" points="356.71 198.2 298.87 198.2 298.87 179.7 298.87 173.33 298.87 168.37 298.87 37.25 356.71 37.25 356.71 198.2"/>
    <ellipse class="cls-2" cx="388.32" cy="245.57" rx="102.64" ry="113.36"/>
    <polygon class="cls-1" points="296.09 150.33 296.09 169.63 296.09 180.3 294.83 184.65 292.64 190.31 290.18 197.62 288.36 204 286.95 209.82 285.42 217.53 284.54 223.15 283.83 229.01 283.25 235.97 282.98 241.76 282.95 250.7 283.29 258.45 284.12 267.37 285.46 276.47 286.76 283.07 287.99 288.28 289.65 294.35 291.93 301.43 295.18 309.93 297.38 314.94 300.37 321.04 302.76 325.44 304.6 328.58 306.64 331.87 308.91 327.32 311.55 321.47 313.91 315.68 315.28 311.97 317.05 306.75 318.77 301.02 320.64 293.85 321.95 287.92 323.01 282.27 324 275.75 324.62 270.64 325.19 264.47 325.56 258.07 325.56 253.02 325.56 246.86 325.56 241.38 325.31 236.73 324.87 231.29 324.31 226.09 323.66 221.28 322.6 214.91 320.77 206.16 318.72 198.25 317.01 192.59 313.82 183.54 309.82 174.06 304.99 164.49 296.09 150.33"/>
    <ellipse class="cls-2" cx="201.62" cy="245.63" rx="102.64" ry="113.36"/>
    <circle class="cls-1" cx="201.62" cy="245.63" r="48.23"/>
    <circle class="cls-1" cx="387.31" cy="245.57" r="48.23"/>
    <text class="cls-3" transform="translate(505.77 302.34) scale(.77 1)"><tspan x="0" y="0">BeatBliss</tspan></text>
  </g>
</svg>